<svg width="38" height="38" viewBox="0 0 38 38" fill="none" xmlns="http://www.w3.org/2000/svg">
<path d="M25.7854 11.6452C24.6743 4.80363 22.0536 0 19.0038 0C15.954 0 13.3333 4.80363 12.2222 11.6452H25.7854ZM11.6475 19C11.6475 20.7008 11.7395 22.3327 11.9004 23.9032H26.0996C26.2605 22.3327 26.3525 20.7008 26.3525 19C26.3525 17.2992 26.2605 15.6673 26.0996 14.0968H11.9004C11.7395 15.6673 11.6475 17.2992 11.6475 19ZM36.5287 11.6452C34.3372 6.44315 29.9004 2.42097 24.4215 0.796774C26.2912 3.38629 27.5785 7.28589 28.2529 11.6452H36.5287ZM13.5785 0.796774C8.10728 2.42097 3.66284 6.44315 1.47893 11.6452H9.75479C10.4215 7.28589 11.7088 3.38629 13.5785 0.796774ZM37.3487 14.0968H28.5594C28.7203 15.7056 28.8123 17.3528 28.8123 19C28.8123 20.6472 28.7203 22.2944 28.5594 23.9032H37.341C37.7625 22.3327 38 20.7008 38 19C38 17.2992 37.7625 15.6673 37.3487 14.0968ZM9.1954 19C9.1954 17.3528 9.28736 15.7056 9.44828 14.0968H0.659004C0.245211 15.6673 0 17.2992 0 19C0 20.7008 0.245211 22.3327 0.659004 23.9032H9.44061C9.28736 22.2944 9.1954 20.6472 9.1954 19ZM12.2222 26.3548C13.3333 33.1964 15.954 38 19.0038 38C22.0536 38 24.6743 33.1964 25.7854 26.3548H12.2222ZM24.4291 37.2032C29.9004 35.579 34.3448 31.5569 36.5364 26.3548H28.2605C27.5862 30.7141 26.2988 34.6137 24.4291 37.2032ZM1.47893 26.3548C3.6705 31.5569 8.10728 35.579 13.5862 37.2032C11.7165 34.6137 10.4291 30.7141 9.75479 26.3548H1.47893Z" fill="white"/>
</svg>
