<svg xmlns="http://www.w3.org/2000/svg" viewBox="0 0 501.59 220.63"><defs><style>.cls-1{fill:#4b7ec0;}.cls-2{fill:#f6a228;stroke:#fff;stroke-miterlimit:10;}</style></defs><g id="Calque_2" data-name="Calque 2"><g id="Calque_1-2" data-name="Calque 1"><path class="cls-1" d="M135.48,99,44.86,172.6.7,118.16,145.51.7l25.12,31.13,2.74,3.25L225.67,98a30.69,30.69,0,0,0-1.88,10.55A31,31,0,0,0,260,139.25l29.83,35.93-53.92,44.75Z"/><path class="cls-1" d="M356.16,219.93,327,184l-47.15-56.76A31.17,31.17,0,0,0,255,77.35a30.35,30.35,0,0,0-13.88,3.35L211.87,45.46,265.71.7,366.19,121.59l90.63-73.47,44.06,54.35Z"/><path class="cls-2" d="M135.48,99,44.86,172.6.7,118.16,145.51.7l25.12,31.13,2.74,3.25L225.67,98a30.69,30.69,0,0,0-1.88,10.55A31,31,0,0,0,260,139.25l29.83,35.93-53.92,44.75Z"/><path class="cls-2" d="M356.16,219.93,327,184l-47.15-56.76A31.17,31.17,0,0,0,255,77.35a30.35,30.35,0,0,0-13.88,3.35L211.87,45.46,265.71.7,366.19,121.59l90.63-73.47,44.06,54.35Z"/></g></g></svg>