<svg width="79" height="35" viewBox="0 0 79 35" fill="none" xmlns="http://www.w3.org/2000/svg">
<path d="M57.6619 19.295L71.9345 7.62569L78.8881 16.2619L56.0822 34.889L52.1322 29.9506L51.699 29.435L43.4555 19.4536C43.6514 18.9177 43.7522 18.3512 43.7532 17.78C43.7561 17.063 43.6033 16.354 43.3054 15.7027C43.0076 15.0514 42.572 14.4736 42.0291 14.0098C41.4862 13.546 40.8492 13.2073 40.1627 13.0176C39.4762 12.8279 38.7568 12.7916 38.0549 12.9115L33.3551 7.21164L41.849 0.112656L57.6619 19.295Z" fill="#4B7EC0"/>
<path d="M22.9035 0.111069L27.4946 5.81088L34.9223 14.8151C34.28 15.6679 33.9337 16.7096 33.9363 17.78C33.9349 18.4294 34.0606 19.0727 34.3062 19.6731C34.5518 20.2735 34.9126 20.8193 35.3678 21.2791C35.823 21.739 36.3638 22.1039 36.9592 22.3531C37.5546 22.6022 38.193 22.7306 38.8377 22.7311C39.5985 22.7316 40.3484 22.5494 41.0254 22.1996L45.6306 27.7884L37.1509 34.889L21.3238 15.7114L7.05122 27.3664L0.110229 18.7445L22.9035 0.111069Z" fill="#4B7EC0"/>
<path d="M57.6619 19.295L71.9345 7.62569L78.8881 16.2619L56.0822 34.889L52.1322 29.9506L51.699 29.435L43.4555 19.4536C43.6514 18.9177 43.7522 18.3512 43.7532 17.78C43.7561 17.063 43.6033 16.354 43.3054 15.7027C43.0076 15.0514 42.572 14.4736 42.0291 14.0098C41.4862 13.546 40.8492 13.2073 40.1627 13.0176C39.4762 12.8279 38.7568 12.7916 38.0549 12.9115L33.3551 7.21164L41.849 0.112656L57.6619 19.295Z" fill="white"/>
<path d="M22.9035 0.111069L27.4946 5.81088L34.9223 14.8151C34.28 15.6679 33.9337 16.7096 33.9363 17.78C33.9349 18.4294 34.0606 19.0727 34.3062 19.6731C34.5518 20.2735 34.9126 20.8193 35.3678 21.2791C35.823 21.739 36.3638 22.1039 36.9592 22.3531C37.5546 22.6022 38.193 22.7306 38.8377 22.7311C39.5985 22.7316 40.3484 22.5494 41.0254 22.1996L45.6306 27.7884L37.1509 34.889L21.3238 15.7114L7.05122 27.3664L0.110229 18.7445L22.9035 0.111069Z" fill="white"/>
</svg>
