<svg width="39" height="39" viewBox="0 0 39 39" fill="none" xmlns="http://www.w3.org/2000/svg">
<path d="M38.9922 13.3299C38.299 7.57141 33.0204 3.24489 26.9343 1.24159C29.7069 4.24273 31.6874 8.9044 31.6874 14.6248H33.8278L24.9462 24.489C24.7558 24.4433 24.5806 24.3747 24.375 24.3747H20.7187V14.6248H29.2499C29.2499 5.84994 24.0017 0 19.5 0C14.9983 0 9.7501 5.84994 9.7501 14.6248H18.2813V24.3747H14.6251C14.4194 24.3747 14.2442 24.4433 14.0538 24.489L5.17222 14.6248H7.31263C7.31263 8.9044 9.29308 4.24273 12.0657 1.24159C5.97963 3.25251 0.700977 7.57902 0.00781998 13.3299C-0.0759682 14.0231 0.525783 14.6248 1.22656 14.6248H1.88925L12.3018 26.1952C12.2485 26.3933 12.18 26.5913 12.18 26.8122V36.5621C12.18 37.9104 13.2692 38.9996 14.6174 38.9996H24.3673C25.7156 38.9996 26.8048 37.9104 26.8048 36.5621V26.8122C26.8048 26.5913 26.7363 26.4009 26.6829 26.1952L37.1031 14.6248H37.7658C38.4742 14.6248 39.076 14.0307 38.9922 13.3299Z" fill="#F2B138"/>
</svg>
