<svg width="118" height="118" viewBox="0 0 118 118" fill="none" xmlns="http://www.w3.org/2000/svg">
<path d="M92.3555 3.26004L58.9447 36.6708L25.5339 3.26004C21.4341 -0.839739 14.7844 -0.839737 10.6847 3.26004L3.26004 10.6847C-0.839747 14.7844 -0.839746 21.4341 3.26004 25.5339L36.6708 58.9447L3.26004 92.3555C-0.839746 96.4553 -0.839747 103.105 3.26004 107.205L10.6847 114.629C14.7844 118.729 21.4341 118.729 25.5339 114.629L58.9447 81.2186L92.3555 114.629C96.4553 118.729 103.105 118.729 107.205 114.629L114.629 107.205C118.729 103.105 118.729 96.4553 114.629 92.3555L81.2186 58.9447L114.629 25.5339C118.729 21.4341 118.729 14.7844 114.629 10.6847L107.205 3.26004C103.105 -0.83974 96.4553 -0.839742 92.3555 3.26004Z" fill="white"/>
</svg>
