<svg width="32" height="24" viewBox="0 0 32 24" fill="none" xmlns="http://www.w3.org/2000/svg">
<path d="M26 23.5077H20.75C20.3375 23.5077 20 23.1771 20 22.773V20.3243C20 19.9203 20.3375 19.5897 20.75 19.5897H26C27.1063 19.5897 28 18.7143 28 17.6307V5.87691C28 4.79336 27.1063 3.91794 26 3.91794H20.75C20.3375 3.91794 20 3.58737 20 3.18333V0.734614C20 0.330576 20.3375 0 20.75 0H26C29.3125 0 32 2.63237 32 5.87691V17.6307C32 20.8753 29.3125 23.5077 26 23.5077ZM23.0625 11.2029L12.5625 0.918268C11.625 0 10 0.642787 10 1.95897V7.83589H1.5C0.66875 7.83589 0 8.49092 0 9.30511V15.182C0 15.9962 0.66875 16.6513 1.5 16.6513H10V22.5282C10 23.8444 11.625 24.4871 12.5625 23.5689L23.0625 13.2843C23.6437 12.7088 23.6437 11.7783 23.0625 11.2029Z" fill="white"/>
</svg>
