<svg width="39" height="19" viewBox="0 0 39 19" fill="none" xmlns="http://www.w3.org/2000/svg">
<path d="M29.2536 9.69277e-08H9.7507C8.14323 -0.000223631 6.56065 0.386861 5.14385 1.12679C3.72704 1.86672 2.51998 2.93654 1.63012 4.241C0.740259 5.54546 0.195216 7.04409 0.0435146 8.60346C-0.108187 10.1628 0.13816 11.7346 0.760623 13.1787C1.38309 14.6229 2.36235 15.8946 3.61123 16.8808C4.86012 17.867 6.33986 18.5369 7.91874 18.831C9.49762 19.1251 11.1266 19.0343 12.6607 18.5665C14.1949 18.0987 15.5865 17.2686 16.7117 16.15H22.2883C23.4134 17.2685 24.8048 18.0986 26.3388 18.5663C27.8727 19.0341 29.5015 19.1251 31.0802 18.8312C32.6589 18.5373 34.1386 17.8676 35.3875 16.8818C36.6364 15.8959 37.6158 14.6245 38.2386 13.1806C38.8613 11.7368 39.108 10.1653 38.9567 8.60604C38.8055 7.04681 38.261 5.54819 37.3717 4.2436C36.4823 2.939 35.2758 1.86889 33.8594 1.12851C32.4431 0.388134 30.8609 0.000461651 29.2536 9.69277e-08ZM15.1128 10.2125C15.1128 10.4015 15.0358 10.5827 14.8987 10.7163C14.7615 10.8499 14.5755 10.925 14.3816 10.925H11.2131V14.0125C11.2131 14.2015 11.1361 14.3827 10.9989 14.5163C10.8618 14.6499 10.6758 14.725 10.4819 14.725H9.0195C8.82557 14.725 8.63959 14.6499 8.50247 14.5163C8.36534 14.3827 8.2883 14.2015 8.2883 14.0125V10.925H5.11978C4.92585 10.925 4.73987 10.8499 4.60274 10.7163C4.46562 10.5827 4.38858 10.4015 4.38858 10.2125V8.7875C4.38858 8.59853 4.46562 8.41731 4.60274 8.28369C4.73987 8.15007 4.92585 8.075 5.11978 8.075H8.2883V4.9875C8.2883 4.79853 8.36534 4.61731 8.50247 4.48369C8.63959 4.35007 8.82557 4.275 9.0195 4.275H10.4819C10.6758 4.275 10.8618 4.35007 10.9989 4.48369C11.1361 4.61731 11.2131 4.79853 11.2131 4.9875V8.075H14.3816C14.5755 8.075 14.7615 8.15007 14.8987 8.28369C15.0358 8.41731 15.1128 8.59853 15.1128 8.7875V10.2125ZM28.2744 14.725C27.7923 14.725 27.3211 14.5857 26.9203 14.3247C26.5195 14.0638 26.2071 13.6928 26.0226 13.2589C25.8381 12.8249 25.7898 12.3474 25.8839 11.8867C25.9779 11.426 26.2101 11.0028 26.5509 10.6706C26.8918 10.3385 27.3261 10.1123 27.7989 10.0206C28.2717 9.929 28.7617 9.97603 29.2071 10.1558C29.6525 10.3355 30.0331 10.64 30.3009 11.0305C30.5688 11.4211 30.7117 11.8803 30.7117 12.35C30.7117 12.9799 30.4549 13.584 29.9978 14.0294C29.5407 14.4748 28.9208 14.725 28.2744 14.725ZM32.1741 9.025C31.692 9.025 31.2208 8.88571 30.82 8.62474C30.4192 8.36377 30.1068 7.99285 29.9223 7.55887C29.7378 7.1249 29.6896 6.64737 29.7836 6.18666C29.8776 5.72596 30.1098 5.30277 30.4506 4.97062C30.7915 4.63847 31.2258 4.41227 31.6986 4.32063C32.1714 4.22899 32.6615 4.27603 33.1068 4.45579C33.5522 4.63554 33.9328 4.93995 34.2007 5.33052C34.4685 5.72109 34.6114 6.18027 34.6114 6.65C34.6114 7.27989 34.3546 7.88398 33.8975 8.32938C33.4405 8.77478 32.8205 9.025 32.1741 9.025Z" fill="white"/>
</svg>
