<svg width="39" height="39" viewBox="0 0 39 39" fill="none" xmlns="http://www.w3.org/2000/svg">
<path d="M19.5 0C8.72782 0 0 8.72782 0 19.5C0 30.2722 8.72782 39 19.5 39C30.2722 39 39 30.2722 39 19.5C39 8.72782 30.2722 0 19.5 0ZM7.10806 13.8073C7.63488 12.4234 9.20746 11.7079 10.6385 12.0853L11.1968 12.2347L11.354 11.6764C11.7472 10.2532 13.1468 9.24677 14.6171 9.48266C16.2998 9.75 17.322 11.3855 16.8817 12.9817L15.3562 18.4778C15.2619 18.8317 14.8923 19.044 14.5306 18.9496L9.01089 17.5185C7.40685 17.094 6.50262 15.3956 7.10806 13.8073ZM19.5 33.3387C14.7351 33.3387 8.92439 30.3272 8.19314 26.0026C8.03589 25.0748 8.91653 24.3121 9.82077 24.5952C12.1954 25.3579 15.7258 25.7903 19.5 25.7903C23.2742 25.7903 26.8046 25.3579 29.1792 24.5952C30.0756 24.3121 30.9562 25.0748 30.8069 26.0026C30.0756 30.3272 24.2649 33.3387 19.5 33.3387ZM29.9891 17.5107L24.4694 18.9417C24.1155 19.0361 23.746 18.8238 23.6438 18.47L22.1183 12.9738C21.678 11.3776 22.7002 9.74214 24.3829 9.4748C25.8454 9.23891 27.245 10.2454 27.646 11.6685L27.8032 12.2268L28.3615 12.0774C29.7925 11.7079 31.3651 12.4155 31.8919 13.7994C32.4974 15.3956 31.5931 17.094 29.9891 17.5107Z" fill="#F2B138"/>
</svg>
