<svg width="129" height="88" viewBox="0 0 129 88" fill="none" xmlns="http://www.w3.org/2000/svg">
<path d="M87.1127 10.882L90.577 67.9342L88.0575 67.8711C79.743 67.6823 71.6176 69.8839 64.4998 74.2871C57.3822 69.8839 49.2568 67.8711 40.942 67.8711C30.486 67.8711 22.1086 70.3244 12.5975 74.2243L19.7782 15.0333C26.329 12.3285 33.8876 10.882 40.9423 10.882C50.3906 10.882 57.8862 13.9013 64.5 20.6316C70.8619 14.1529 78.0423 11.0706 87.1127 10.882ZM129 88C123.142 88 118.103 86.8049 112.812 84.4147C104.939 80.8294 96.75 78.6906 88.0577 78.6906C79.1133 78.6906 70.8619 81.647 64.5 88C58.1381 81.6468 49.8867 78.6906 40.9423 78.6906C32.25 78.6906 24.0615 80.8294 16.188 84.4147C11.086 86.6791 5.92082 88 0.315076 88H0L9.76323 7.98852C18.7706 2.89346 29.7305 0 40.1235 0C48.6269 0 57.3824 1.76115 64.5 6.6676C71.6176 1.76115 80.3731 0 88.8765 0C99.2695 0 110.229 2.89346 119.237 7.98852L129 88ZM119.048 77.7469L111.237 13.5238C104.183 10.3157 95.8052 8.61735 88.0577 8.61735C79.2393 8.61735 70.9879 11.385 64.5 17.4866C58.0121 11.385 49.7609 8.61735 40.9423 8.61735C33.1948 8.61735 24.8174 10.3157 17.7627 13.5238L9.9521 77.7469C20.7861 73.2811 28.9746 70.073 40.9423 70.073C49.5716 70.073 57.1934 72.2744 64.5 76.8664C71.8066 72.2744 79.4281 70.073 88.0577 70.073C100.025 70.073 108.214 73.2811 119.048 77.7469Z" fill="white"/>
</svg>
