<svg width="38" height="26" viewBox="0 0 38 26" fill="none" xmlns="http://www.w3.org/2000/svg">
<path d="M25.6611 3.21513L26.6816 20.0715L25.9394 20.0528C23.4902 19.997 21.0966 20.6475 18.9999 21.9485C16.9033 20.6475 14.5097 20.0528 12.0604 20.0528C8.98037 20.0528 6.51261 20.7777 3.7109 21.9299L5.82614 4.44167C7.75582 3.64251 9.98239 3.21513 12.0605 3.21513C14.8438 3.21513 17.0517 4.10719 19 6.09571C20.874 4.18153 22.9892 3.27085 25.6611 3.21513ZM38 26C36.2745 26 34.7901 25.6469 33.2314 24.9407C30.9121 23.8814 28.5 23.2495 25.9395 23.2495C23.3047 23.2495 20.874 24.123 19 26C17.126 24.1229 14.6953 23.2495 12.0605 23.2495C9.5 23.2495 7.08787 23.8814 4.76856 24.9407C3.26563 25.6097 1.74412 26 0.0928132 26H0L2.87599 2.36024C5.52931 0.854886 8.75783 0 11.8193 0C14.3242 0 16.9034 0.520339 19 1.96997C21.0966 0.520339 23.6758 0 26.1807 0C29.2422 0 32.4707 0.854886 35.124 2.36024L38 26ZM35.0684 22.9707L32.7676 3.99567C30.6895 3.04782 28.2217 2.54604 25.9395 2.54604C23.3418 2.54604 20.9112 3.36375 19 5.16648C17.0888 3.36375 14.6583 2.54604 12.0605 2.54604C9.77831 2.54604 7.31054 3.04782 5.23242 3.99567L2.93163 22.9707C6.12303 21.6512 8.53516 20.7034 12.0605 20.7034C14.6025 20.7034 16.8477 21.3538 19 22.7105C21.1523 21.3538 23.3974 20.7034 25.9395 20.7034C29.4648 20.7034 31.877 21.6512 35.0684 22.9707Z" fill="#4181FF"/>
</svg>
