<svg width="35" height="52" viewBox="0 0 35 52" fill="none" xmlns="http://www.w3.org/2000/svg">
<path d="M11.4953 20.8H8.75C8.28587 20.8 7.84075 20.9826 7.51256 21.3077C7.18437 21.6327 7 22.0736 7 22.5333V26C7 26.4597 7.18437 26.9006 7.51256 27.2257C7.84075 27.5507 8.28587 27.7333 8.75 27.7333H10.5V28.3281C10.5 33.0947 10.0472 37.7098 7.875 41.6H27.125C24.9495 37.7098 24.5 33.0947 24.5 28.3281V27.7333H26.25C26.7141 27.7333 27.1592 27.5507 27.4874 27.2257C27.8156 26.9006 28 26.4597 28 26V22.5333C28 22.0736 27.8156 21.6327 27.4874 21.3077C27.1592 20.9826 26.7141 20.8 26.25 20.8H23.5047C26.7192 18.8088 28.875 15.2988 28.875 11.2667C28.875 8.27856 27.6766 5.41284 25.5433 3.29993C23.4101 1.18702 20.5168 0 17.5 0C14.4832 0 11.5899 1.18702 9.45666 3.29993C7.32343 5.41284 6.125 8.27856 6.125 11.2667C6.125 15.2988 8.28078 18.8088 11.4953 20.8ZM33.25 45.0667H1.75C1.28587 45.0667 0.840752 45.2493 0.512563 45.5743C0.184374 45.8994 0 46.3403 0 46.8L0 50.2667C0 50.7264 0.184374 51.1673 0.512563 51.4923C0.840752 51.8174 1.28587 52 1.75 52H33.25C33.7141 52 34.1592 51.8174 34.4874 51.4923C34.8156 51.1673 35 50.7264 35 50.2667V46.8C35 46.3403 34.8156 45.8994 34.4874 45.5743C34.1592 45.2493 33.7141 45.0667 33.25 45.0667Z" fill="#FF6C4B"/>
</svg>
