<svg width="39" height="28" viewBox="0 0 39 28" fill="none" xmlns="http://www.w3.org/2000/svg">
<path d="M11.7 13.65C15.472 13.65 18.525 10.597 18.525 6.825C18.525 3.05297 15.472 0 11.7 0C7.92797 0 4.875 3.05297 4.875 6.825C4.875 10.597 7.92797 13.65 11.7 13.65ZM16.38 15.6H15.8742C14.6067 16.2094 13.1991 16.575 11.7 16.575C10.2009 16.575 8.79938 16.2094 7.52578 15.6H7.02C3.14438 15.6 0 18.7444 0 22.62V24.375C0 25.9898 1.31016 27.3 2.925 27.3H20.475C22.0898 27.3 23.4 25.9898 23.4 24.375V22.62C23.4 18.7444 20.2556 15.6 16.38 15.6ZM29.25 13.65C32.4797 13.65 35.1 11.0297 35.1 7.8C35.1 4.57031 32.4797 1.95 29.25 1.95C26.0203 1.95 23.4 4.57031 23.4 7.8C23.4 11.0297 26.0203 13.65 29.25 13.65ZM32.175 15.6H31.9434C31.0964 15.8925 30.2006 16.0875 29.25 16.0875C28.2994 16.0875 27.4036 15.8925 26.5566 15.6H26.325C25.0819 15.6 23.9363 15.9595 22.9308 16.5384C24.4177 18.1411 25.35 20.2678 25.35 22.62V24.96C25.35 25.0941 25.3195 25.222 25.3134 25.35H36.075C37.6898 25.35 39 24.0398 39 22.425C39 18.653 35.947 15.6 32.175 15.6Z" fill="#F2B138"/>
</svg>
