<svg width="39" height="39" viewBox="0 0 39 39" fill="none" xmlns="http://www.w3.org/2000/svg">
<path d="M19.5 0C8.72782 0 0 8.72782 0 19.5C0 30.2722 8.72782 39 19.5 39C30.2722 39 39 30.2722 39 19.5C39 8.72782 30.2722 0 19.5 0ZM7.43831 12.6514L10.1825 12.2583L11.4012 9.77359C11.6292 9.31754 12.2661 9.31754 12.4942 9.77359L13.7129 12.2583L16.4571 12.6514C16.9446 12.73 17.1569 13.3276 16.7952 13.6893L14.798 15.6236L15.2698 18.3677C15.3484 18.8552 14.853 19.2327 14.4048 18.9889L11.9516 17.7151L9.49052 18.9968C9.04234 19.2405 8.54698 18.8631 8.6256 18.3756L9.09738 15.6315L7.1002 13.6972C6.73851 13.3276 6.95081 12.73 7.43831 12.6514ZM19.5 33.3387C14.7351 33.3387 8.92439 30.3272 8.19314 26.0026C8.03589 25.0748 8.9244 24.3121 9.82077 24.5952C12.1954 25.3579 15.7258 25.7903 19.5 25.7903C23.2742 25.7903 26.8046 25.3579 29.1792 24.5952C30.0835 24.3042 30.9562 25.0748 30.8069 26.0026C30.0756 30.3272 24.2649 33.3387 19.5 33.3387ZM31.8998 13.6893L29.9026 15.6236L30.3744 18.3677C30.453 18.8552 29.9577 19.2327 29.5095 18.9889L27.0484 17.7151L24.5873 18.9968C24.1391 19.2405 23.6438 18.8631 23.7224 18.3756L24.1942 15.6315L22.197 13.6972C21.8431 13.3355 22.0476 12.7379 22.5351 12.6593L25.2792 12.2661L26.498 9.78145C26.726 9.3254 27.3629 9.3254 27.5909 9.78145L28.8097 12.2661L31.5538 12.6593C32.0492 12.73 32.2615 13.3276 31.8998 13.6893Z" fill="#F2B138"/>
</svg>
