<svg width="23" height="26" viewBox="0 0 23 26" fill="none" xmlns="http://www.w3.org/2000/svg">
<path d="M1.64286 23.5625C1.64286 24.209 1.90249 24.829 2.36463 25.2861C2.82677 25.7432 3.45357 26 4.10714 26H18.8929C19.5464 26 20.1732 25.7432 20.6354 25.2861C21.0975 24.829 21.3571 24.209 21.3571 23.5625V6.50001H1.64286V23.5625ZM15.6071 10.5625C15.6071 10.347 15.6937 10.1404 15.8477 9.98798C16.0018 9.83561 16.2107 9.75 16.4286 9.75C16.6464 9.75 16.8554 9.83561 17.0094 9.98798C17.1635 10.1404 17.25 10.347 17.25 10.5625V21.9375C17.25 22.153 17.1635 22.3597 17.0094 22.512C16.8554 22.6644 16.6464 22.75 16.4286 22.75C16.2107 22.75 16.0018 22.6644 15.8477 22.512C15.6937 22.3597 15.6071 22.153 15.6071 21.9375V10.5625ZM10.6786 10.5625C10.6786 10.347 10.7651 10.1404 10.9192 9.98798C11.0732 9.83561 11.2821 9.75 11.5 9.75C11.7179 9.75 11.9268 9.83561 12.0808 9.98798C12.2349 10.1404 12.3214 10.347 12.3214 10.5625V21.9375C12.3214 22.153 12.2349 22.3597 12.0808 22.512C11.9268 22.6644 11.7179 22.75 11.5 22.75C11.2821 22.75 11.0732 22.6644 10.9192 22.512C10.7651 22.3597 10.6786 22.153 10.6786 21.9375V10.5625ZM5.75 10.5625C5.75 10.347 5.83654 10.1404 5.99059 9.98798C6.14464 9.83561 6.35357 9.75 6.57143 9.75C6.78929 9.75 6.99822 9.83561 7.15227 9.98798C7.30631 10.1404 7.39286 10.347 7.39286 10.5625V21.9375C7.39286 22.153 7.30631 22.3597 7.15227 22.512C6.99822 22.6644 6.78929 22.75 6.57143 22.75C6.35357 22.75 6.14464 22.6644 5.99059 22.512C5.83654 22.3597 5.75 22.153 5.75 21.9375V10.5625ZM22.1786 1.62501H16.0179L15.5353 0.675399C15.433 0.472383 15.2756 0.30161 15.0806 0.182292C14.8856 0.0629747 14.6608 -0.000153764 14.4315 8.90333e-06H8.56339C8.33461 -0.000861006 8.11022 0.0620321 7.9159 0.181483C7.72159 0.300933 7.56523 0.472109 7.46473 0.675399L6.98214 1.62501H0.821429C0.603572 1.62501 0.394639 1.71061 0.240591 1.86298C0.0865431 2.01536 0 2.22202 0 2.43751L0 4.06251C0 4.278 0.0865431 4.48466 0.240591 4.63703C0.394639 4.7894 0.603572 4.87501 0.821429 4.87501H22.1786C22.3964 4.87501 22.6054 4.7894 22.7594 4.63703C22.9135 4.48466 23 4.278 23 4.06251V2.43751C23 2.22202 22.9135 2.01536 22.7594 1.86298C22.6054 1.71061 22.3964 1.62501 22.1786 1.62501Z" fill="#F2B138"/>
</svg>
