<svg viewBox="0 0 1238 909" fill="none" xmlns="http://www.w3.org/2000/svg">
<path d="M325.894 262.055C325.5 258.95 324.706 255.909 323.529 253.008C323.379 252.459 323.116 251.948 322.757 251.506C322.398 251.065 321.952 250.703 321.445 250.443C320.768 250.267 320.059 250.259 319.378 250.42L308.764 252.043C307.876 252.084 307.025 252.414 306.343 252.983C304.96 254.436 306.322 256.776 306.279 258.78C306.232 261.034 304.228 262.864 302.055 263.469C299.837 263.917 297.549 263.888 295.342 263.386L280.501 261.081C284.872 259.686 288.763 257.092 291.729 253.593C293.682 251.281 294.721 246.964 291.898 245.869C291.059 245.639 290.185 245.569 289.32 245.663C282.596 245.715 277.305 240.104 271.01 237.741C266.981 236.327 262.608 236.221 258.516 237.441C254.424 238.66 250.822 241.141 248.226 244.529L256.132 244.91C256.876 244.869 257.613 245.066 258.238 245.471C259.97 246.894 257.816 249.627 258.06 251.854C258.377 254.749 262.223 255.367 265.121 255.659C268.02 255.952 271.697 258.306 270.303 260.862C255.734 265.877 240.908 251.059 225.608 252.883C221.735 253.345 218.078 254.865 214.298 255.821C191.201 261.661 167.324 246.079 143.73 249.379C138.485 250.273 133.33 251.631 128.326 253.439C125.115 254.493 121.765 255.632 119.432 258.075C117.099 260.519 116.211 264.698 118.421 267.254C112.329 267.755 106.196 267.172 100.307 265.533C101.9 266.417 103.224 267.714 104.142 269.287C105.06 270.86 105.538 272.65 105.525 274.471C96.0121 276.021 86.7515 278.843 77.9919 282.861C79.6268 285.578 81.5363 288.12 83.6905 290.447L71.6479 298.179C75.7165 299.203 77.82 304.748 75.454 308.21C79.6726 306.335 82.2871 301.483 86.7983 300.499C89.7536 299.855 92.7608 301.063 95.5644 302.198C98.368 303.333 101.45 304.434 104.352 303.582C107.254 302.73 109.395 298.969 107.551 296.573C119.956 292.956 132.777 290.954 145.695 290.617C146.692 290.492 147.702 290.684 148.584 291.165C150.266 292.331 149.823 294.849 149.733 296.893C149.642 298.936 151.236 301.622 153.063 300.701C150.913 302.564 152.751 306.071 154.814 308.031C156.876 309.99 159.363 312.693 158.1 315.242C157.77 315.907 157.211 316.439 156.894 317.111C155.958 319.092 157.444 321.402 159.197 322.717C160.95 324.033 163.098 324.953 164.315 326.774C165.533 328.596 164.98 331.785 162.803 332.04L156.613 324.186C154.499 326.378 153.049 329.123 152.432 332.104C158.995 337.466 159.983 348.38 154.488 354.831C151.68 358.128 147.687 360.131 144.202 362.703C140.717 365.274 137.492 368.936 137.501 373.265C137.516 380.745 136.904 387.693 139.709 394.628C144.881 407.415 150.851 419.864 157.586 431.901C159.354 435.062 161.64 438.527 165.223 439.071C160.695 428.056 156.619 416.868 152.995 405.51C155.355 405.519 158.083 405.706 159.467 407.617C160.613 409.2 160.367 411.352 160.723 413.272C161.175 415.133 161.931 416.907 162.958 418.524L184.58 457.014C186.372 460.205 188.428 463.63 191.854 464.922C194.044 465.749 196.578 465.593 198.594 466.782C200.174 467.715 201.238 469.37 202.849 470.248C207.404 472.731 213.738 467.969 217.994 470.933C219.211 471.781 219.985 473.128 221.107 474.098C225.038 477.501 231.487 475.225 236.025 477.763C238.95 479.398 240.466 482.67 242.026 485.634C245.934 493.06 252.256 500.335 260.631 500.927C263.262 501.112 265.949 500.614 268.52 501.199C271.092 501.783 273.623 504.026 273.21 506.629C272.503 511.092 274.709 515.978 274.116 520.457C273.037 528.617 261.456 532.202 260.462 540.372C260.244 542.161 260.585 544.007 260.158 545.758C259.636 547.904 258.023 549.652 257.45 551.785C256.364 555.827 259.262 559.85 262.446 562.569C265.629 565.289 269.427 567.634 271.167 571.44C273.007 575.464 272.103 580.156 272.701 584.539C274.008 594.108 282.278 601.202 290.789 605.776C293.382 607.17 296.167 608.519 297.845 610.937C300.036 614.092 299.818 618.252 300.549 622.023C302.341 631.257 310.119 638.865 310.34 648.268C310.497 654.952 306.779 661.015 304.559 667.321C302.477 673.363 301.723 679.783 302.35 686.143C302.976 692.502 304.968 698.652 308.189 704.172C309.851 706.976 311.838 709.619 313.013 712.658C315.11 718.081 314.429 724.246 316.363 729.729C318.919 736.979 325.944 742.967 325.271 750.625C328.46 757.243 335.502 760.495 342.584 762.465L355.274 765.995C357.704 766.671 360.244 767.352 362.718 766.863C365.192 766.373 367.554 764.32 367.49 761.8C361.267 760.397 354.844 758.906 349.713 755.116C344.583 751.326 341.069 744.577 343.015 738.505C343.918 735.69 345.838 732.439 344.012 730.112C342.967 728.78 341.056 728.432 339.877 727.217C338.038 725.322 338.67 722.137 339.992 719.851C341.314 717.566 343.225 715.523 343.758 712.937C344.027 711.49 343.847 709.996 343.242 708.655C342.638 707.313 341.637 706.188 340.374 705.431C342.727 704.544 344.868 703.171 346.656 701.404C348.308 699.518 349.071 696.612 347.771 694.469C351.63 694.958 356.186 695.197 358.719 692.247C360.742 689.891 360.603 686.37 359.804 683.37C359.004 680.37 357.654 677.457 357.611 674.353C366.513 674.774 375.435 674.472 384.287 673.449C383.007 669.14 380.098 665.499 376.177 663.298C380.186 662.62 383.839 657.823 385.106 653.961C386.372 650.1 386.049 645.893 385.266 641.906C384.966 640.879 384.925 639.794 385.147 638.747C385.598 637.309 387.011 636.432 388.319 635.681L408.221 624.259C409.408 623.664 410.485 622.87 411.403 621.911C413.488 619.463 413.179 615.769 412.112 612.736C411.044 609.704 409.334 606.853 408.923 603.665C407.693 594.13 417.906 587.289 421.352 578.314C422.705 574.791 422.981 570.963 423.242 567.199C423.524 563.157 423.545 558.461 420.439 555.857C417.462 553.359 412.81 553.917 409.695 551.594C406.839 549.464 405.853 545.329 402.733 543.609C399.899 542.047 396.347 543.04 393.195 542.305C387.646 541.012 384.155 534.621 378.488 534.029C375.29 533.695 371.672 535.257 369.051 533.396C366.742 531.756 366.649 528.461 366.21 525.664C365.44 521.318 363.355 517.312 360.237 514.185C357.119 511.059 353.117 508.963 348.77 508.179C345.474 507.651 341.885 507.852 339.081 506.041C336.241 504.208 334.939 500.776 332.708 498.237C329.113 494.145 323.451 492.691 318.146 491.445L296.571 486.376C292.741 485.476 287.804 484.999 285.749 488.352C285.14 489.628 284.709 490.982 284.468 492.376C283.698 494.896 282.148 497.108 280.041 498.692C277.935 500.277 275.379 501.154 272.742 501.196C270.934 498.114 268.005 495.848 264.565 494.873C262.378 494.263 260.036 494.196 257.949 493.299C256.813 492.745 255.802 491.965 254.978 491.006C254.153 490.048 253.534 488.932 253.156 487.725C252.779 486.519 252.651 485.249 252.782 483.992C252.913 482.735 253.299 481.518 253.917 480.415C255.161 478.202 255.641 475.641 255.284 473.128C254.927 470.615 253.751 468.289 251.94 466.509C248.271 463.217 242.963 462.422 238.043 462.751C236.755 459.941 238.909 456.771 241.231 454.729C243.553 452.687 246.372 450.68 246.878 447.631C247.673 442.834 241.549 439.191 236.899 440.621C232.25 442.052 229.282 446.565 227.32 451.014C226.195 453.567 225.238 456.255 223.462 458.407C221.687 460.56 218.828 462.101 216.123 461.41C212.295 460.432 210.816 455.886 209.969 452.029C208.832 446.854 207.688 441.607 207.926 436.313C208.165 431.02 209.95 425.585 213.856 422.002C220.22 416.163 229.984 416.735 238.573 417.667C236.544 415.382 237.045 411.531 239.216 409.38C240.363 408.362 241.74 407.639 243.229 407.274C244.718 406.908 246.273 406.911 247.761 407.282C250.349 407.821 252.681 409.214 254.38 411.238C256.821 414.212 257.515 418.227 259.36 421.603C261.205 424.978 265.354 427.858 268.749 426.047C271.682 424.482 272.148 420.418 271.418 417.177C270.688 413.936 269.137 410.784 269.402 407.472C269.906 401.153 276.461 397.349 282.245 394.747C288.029 392.144 294.652 388.644 295.569 382.372C295.6 381.143 295.832 379.929 296.255 378.775C296.896 377.756 297.788 376.918 298.845 376.341C315.726 365.192 332.888 353.907 352.182 347.815C353.186 347.498 353.304 347.85 354.327 347.602C355.758 346.775 354.81 344.487 353.437 343.566C352.064 342.644 350.23 341.937 349.881 340.322C349.625 339.134 350.326 337.968 350.507 336.767C350.954 333.815 347.421 331.09 344.677 332.27C343.127 330.219 346.194 327.835 348.674 327.153C356.12 325.105 363.764 323.857 371.475 323.431C372.365 323.289 373.276 323.444 374.07 323.872C375.365 324.768 375.199 326.825 374.281 328.105C373.363 329.384 371.936 330.188 370.792 331.271C369.542 332.487 368.651 334.024 368.215 335.712C367.779 337.4 367.816 339.176 368.321 340.845C372.347 342.891 376.723 344.998 381.182 344.277C385.641 343.556 389.598 338.55 387.502 334.551C385.551 330.828 379.688 329.988 378.68 325.907C377.5 321.129 384.268 316.88 382.743 312.2C382.076 310.151 380.031 308.944 378.463 307.464C376.611 305.65 375.35 303.318 374.848 300.775C374.346 298.232 374.625 295.596 375.649 293.215C373.094 293.664 370.469 293.494 367.993 292.72C365.517 291.946 363.264 290.59 361.421 288.765C358.017 285.333 355.302 279.918 350.47 280.072C346.035 280.213 342.215 285.383 338.068 283.806C337.048 283.418 335.973 282.628 334.984 283.091C334.66 283.301 334.388 283.582 334.189 283.912C333.99 284.243 333.868 284.615 333.834 284.999C332.78 290.034 334.593 295.771 331.847 300.122C328.859 304.856 321.947 305.513 318.324 309.782C316.358 312.1 315.596 315.223 313.789 317.666C311.981 320.11 308.145 321.663 305.976 319.534C307.042 317.344 307.333 314.857 306.802 312.48C306.27 310.103 304.948 307.976 303.05 306.448C301.036 305.135 298.865 304.079 296.589 303.307C294.044 302.23 291.624 300.882 289.37 299.286C288.241 298.605 287.323 297.624 286.72 296.452C286.243 294.985 286.307 293.395 286.901 291.971C288.001 288.82 289.941 286.028 292.513 283.898C295.084 281.768 298.189 280.381 301.492 279.885C304.38 279.493 307.741 279.631 309.652 277.432C310.664 276.268 311.194 274.509 312.662 274.036C313.601 273.848 314.576 273.968 315.441 274.378L326.221 278.17C327.424 278.713 328.748 278.932 330.061 278.805C330.713 278.717 331.307 278.387 331.724 277.88C332.142 277.372 332.352 276.726 332.313 276.071C331.968 274.282 329.214 273.423 329.464 271.619C329.605 271.034 329.919 270.505 330.366 270.103C334.257 265.965 339.014 262.738 344.299 260.652C349.583 258.567 355.264 257.674 360.934 258.04C362.294 260.273 360.142 262.917 358.352 264.824C356.561 266.73 355.123 270.137 357.288 271.604C358.175 272.057 359.162 272.279 360.158 272.25C362.812 272.609 365.391 273.391 367.798 274.566C371.523 276.186 375.176 277.958 378.759 279.884C378.442 277.523 378.14 275.037 379.035 272.83C379.931 270.623 382.475 268.892 384.697 269.751C386.839 270.579 387.937 273.413 390.219 273.673C393.263 274.02 394.464 269.526 393.192 266.74C391.921 263.955 389.404 261.623 389.194 258.568C389.052 256.508 389.837 253.952 388.19 252.705C387.604 252.33 386.938 252.097 386.247 252.024L345.123 244.461C342.681 244.012 339.153 244.356 339.045 246.835C338.984 248.219 340.221 249.588 339.673 250.86C339.089 252.218 337.168 252.094 335.769 252.574C333.598 253.32 332.509 255.896 332.718 258.18C333.099 260.45 333.979 262.607 335.293 264.497C332.618 263.379 328.568 263.173 325.894 262.055Z" fill="white" fill-opacity="0.2"/>
<path d="M293.081 227.169C290.488 226.311 287.694 226.271 285.077 227.055C282.46 227.838 280.148 229.406 278.453 231.547C277.776 232.438 277.207 233.666 277.774 234.631C278.587 236.014 280.658 235.468 282.184 234.973C284.429 234.172 286.871 234.114 289.151 234.807C290.584 235.299 291.867 236.168 293.307 236.642C294.008 236.935 294.775 237.031 295.527 236.921C296.279 236.812 296.986 236.499 297.574 236.018C298.562 235.011 298.624 233.445 298.626 232.035C298.695 231.563 298.657 231.081 298.515 230.626C298.374 230.17 298.133 229.752 297.809 229.402C297.233 229.068 296.585 228.876 295.92 228.843C294.43 228.567 293.083 227.781 292.111 226.619" fill="white" fill-opacity="0.2"/>
<path d="M307.909 223.043C307.329 223.012 306.75 223.13 306.229 223.386C305.707 223.643 305.261 224.029 304.932 224.508C304.603 224.987 304.403 225.542 304.351 226.121C304.299 226.699 304.397 227.281 304.635 227.811C306.417 228.297 308.279 228.418 310.109 228.168C311.022 228.026 311.873 227.618 312.554 226.994C313.235 226.37 313.716 225.558 313.936 224.662C311.781 225.054 309.557 224.629 307.699 223.471" fill="white" fill-opacity="0.2"/>
<path d="M357.66 216.152C352.809 217.183 348.097 218.783 343.621 220.918C345.731 221.729 347.525 223.195 348.737 225.101C349.95 227.007 350.518 229.252 350.358 231.505C350.169 232.37 350.19 233.268 350.422 234.123C350.937 235.372 352.431 235.841 353.745 236.161C356.105 236.879 358.569 237.193 361.033 237.091C362.266 237.027 363.463 236.656 364.517 236.013C365.57 235.369 366.446 234.474 367.066 233.407C367.423 232.394 367.842 231.404 368.321 230.443C371.469 225.651 380.822 231.445 384.202 226.814C385.393 225.182 385.284 222.727 386.836 221.434C387.639 220.871 388.57 220.516 389.544 220.401C396.342 219.051 403.208 218.074 410.112 217.474C413.384 217.189 417.648 216.015 417.675 212.733C405.353 210.315 392.576 212.033 381.332 217.62C377.28 219.647 371.922 223.913 368.02 221.225C366.558 220.218 366.631 217.507 364.62 216.376C362.564 215.218 359.842 215.689 357.66 216.152Z" fill="white" fill-opacity="0.2"/>
<path d="M397.957 223.683L403.741 224.794C402.677 224.747 401.614 224.927 400.625 225.323C399.635 225.719 398.742 226.321 398.003 227.089C397.265 227.857 396.699 228.774 396.344 229.778C395.988 230.782 395.851 231.851 395.941 232.912C401.358 234.72 407.263 232.961 412.969 233.201C418.675 233.441 425.314 237.515 424.34 243.138C424.046 244.839 423.063 246.538 423.574 248.186C423.932 249.342 424.952 250.162 425.527 251.226C426.726 253.443 425.768 256.248 424.254 258.263C422.739 260.279 420.704 261.887 419.375 264.029C416.069 269.357 417.947 276.244 419.917 282.196C420.486 284.445 421.537 286.543 422.998 288.346C425.916 291.446 430.67 291.716 434.928 291.778C438.027 291.823 441.578 291.67 443.537 289.27C446.096 286.137 444.307 281.25 445.991 277.573C447.521 274.233 451.419 272.801 454.951 271.785C461.421 269.923 468.015 268.341 474.131 265.529C481.727 262.038 488.825 256.597 497.173 256.147C499.515 256.021 501.915 256.297 504.171 255.656C506.427 255.015 508.57 253.066 508.4 250.728C508.254 248.73 506.563 247.264 505.241 245.758C503.92 244.252 502.882 241.937 504.097 240.344L525.978 236.259C524.427 232.035 523.219 226.471 526.783 223.721C528.069 222.729 529.791 222.333 530.886 221.133C532.752 219.089 531.814 215.568 529.659 213.829C527.505 212.091 524.592 211.687 521.833 211.458C512.238 210.662 502.589 211.188 492.975 211.714C474.184 212.744 455.392 213.773 436.6 214.803C432.817 215.01 428.45 214.693 424.98 215.983C422.043 217.075 419.954 219.079 416.595 219.784C410.394 221.084 403.569 220.204 397.957 223.683Z" fill="white" fill-opacity="0.2"/>
<path d="M501.58 269.375C500.991 269.282 500.388 269.418 499.897 269.757C499.572 270.114 499.378 270.572 499.349 271.054C498.975 273.182 499.42 275.373 500.594 277.187C501.192 278.077 502.018 278.791 502.985 279.254C503.952 279.718 505.026 279.914 506.095 279.822C508.699 279.491 510.619 277.27 513.013 276.186C516.704 274.518 532.376 271.917 521.535 266.063C517.799 264.046 515.384 265.827 512.44 267.155C509.089 268.868 505.335 269.636 501.58 269.375Z" fill="white" fill-opacity="0.2"/>
<path d="M596.539 220.379C595.274 220.896 594.214 221.817 593.528 222.999C593.211 223.599 593.138 224.298 593.322 224.95C593.507 225.603 593.936 226.16 594.52 226.506C594.993 226.677 595.494 226.756 595.996 226.74L601.144 226.893C603.331 226.959 606.062 227.424 606.65 229.53C607.086 231.094 606.11 233.103 607.288 234.221C607.794 234.612 608.402 234.849 609.039 234.903C610.734 235.339 612.505 235.396 614.225 235.071C617.971 234.067 616.003 231.782 617.182 229.748C618.987 226.636 618.675 228.52 621.855 226.736C624.203 225.419 627.238 223.029 625.278 219.672C621.869 213.833 601.57 217.871 596.539 220.379Z" fill="white" fill-opacity="0.2"/>
<path d="M698.137 217.444L695.148 217.842C688.408 218.741 681.629 219.648 675.137 221.671C677.948 222.781 680.896 223.504 683.901 223.82C685.555 223.901 687.198 224.134 688.81 224.517C691.677 225.37 694.566 227.573 697.336 226.445C699.054 225.745 699.614 223.958 701.037 223.011C702.02 222.357 705.746 221.298 706.162 220.638C709.53 215.301 700.725 217.098 698.137 217.444Z" fill="white" fill-opacity="0.2"/>
<path d="M711.261 231.02C707.269 233.251 703.564 235.962 700.231 239.092C698.827 240.412 697.392 242.053 697.52 243.975C697.689 246.529 700.412 248.011 702.771 249.009L712.326 253.052C713.485 251.419 712.424 249.165 711.226 247.561C710.028 245.956 708.605 244.1 709.134 242.169C709.738 239.966 712.426 239.215 714.68 238.835C718.353 238.217 728.261 238.266 727.071 232.351C725.668 225.381 714.948 228.96 711.261 231.02Z" fill="white" fill-opacity="0.2"/>
<path d="M709.34 625.471C708.43 628.103 708.344 631.203 709.917 633.501C711.683 636.079 715.217 637.04 718.274 636.386C721.318 635.577 724.032 633.833 726.032 631.401C727.862 629.364 729.367 627.057 730.494 624.562C732.069 620.675 733.179 616.615 733.802 612.468L736.769 596.901C737.432 593.422 737.406 582.756 731.008 586.231C729.26 587.18 725.213 594.676 723.381 596.801C720.079 600.632 719.643 604.349 717.905 608.99C715.728 614.804 711.352 619.648 709.34 625.471Z" fill="white" fill-opacity="0.2"/>
<path d="M1047.28 705.131C1045.19 704.314 1043.16 703.347 1041.2 702.238C1039.24 707.622 1038.2 713.297 1038.12 719.025L1052.45 710.924C1054.6 709.705 1057.04 708.012 1057 705.537C1057.02 705.232 1056.95 704.927 1056.81 704.654C1056.67 704.381 1056.46 704.151 1056.2 703.988C1055.89 703.86 1055.54 703.82 1055.2 703.87C1053.08 704.047 1051.14 705.092 1049.13 705.818C1047.13 706.545 1044.79 706.929 1042.95 705.85" fill="white" fill-opacity="0.2"/>
<path d="M1122.86 709.941C1121.28 710.368 1119.75 710.919 1118.26 711.588C1114.97 713.26 1112.74 716.435 1109.78 718.637C1106.95 720.744 1103.54 721.901 1100.19 723.026C1099.21 723.895 1099.66 725.646 1100.73 726.41C1101.88 727.063 1103.2 727.359 1104.51 727.26C1107.99 727.336 1111.65 727.37 1114.7 725.692C1116.41 724.58 1118.02 723.307 1119.49 721.89C1123.05 718.921 1127.32 716.963 1131.56 715.071C1133.1 714.489 1134.52 713.639 1135.76 712.558C1138.42 709.94 1138.61 705.901 1134.77 705.01C1131.68 704.29 1125.81 708.987 1122.86 709.941Z" fill="white" fill-opacity="0.2"/>
<path d="M1156.25 688.142C1156.42 686.341 1156.18 684.524 1155.55 682.829C1154.91 681.133 1153.9 679.604 1152.59 678.356C1152.55 681.96 1152.44 685.8 1150.41 688.781C1148.97 690.904 1146.7 692.339 1145.12 694.361C1143.54 696.384 1142.83 699.59 1144.69 701.365C1145.88 702.268 1147.32 702.766 1148.81 702.785C1152.51 703.22 1156.79 703.463 1159.38 700.793C1160.8 699.336 1161.49 697.178 1163.21 696.107C1163.86 695.837 1164.43 695.427 1164.89 694.906C1165.61 693.773 1164.47 692.281 1163.2 691.873C1161.93 691.465 1160.52 691.657 1159.24 691.269C1157.96 690.882 1156.78 689.442 1157.44 688.277" fill="white" fill-opacity="0.2"/>
<path d="M1096.9 555.997C1094.96 556.469 1092.95 556.587 1090.97 556.347C1087.68 555.742 1085.12 553.263 1082.46 551.23C1076.14 546.423 1068.46 543.742 1060.53 543.572C1053.31 543.435 1046.02 545.391 1038.93 544.026C1039.39 546.602 1041.59 548.533 1043.95 549.682C1046.3 550.83 1048.9 551.408 1051.26 552.532C1055.05 554.351 1058.05 557.474 1059.72 561.327C1060.48 563.103 1060.96 565.036 1062.11 566.587C1064.47 569.757 1068.94 570.453 1072.88 570.194C1078.02 569.856 1083.39 568.378 1088.18 570.292C1091.84 571.757 1094.46 574.958 1097.51 577.447C1100.57 579.935 1104.87 581.783 1108.38 579.987C1104.74 578.808 1101.56 576.495 1099.33 573.387C1097.09 570.279 1095.91 566.538 1095.95 562.711C1099.39 563.027 1109.3 562.904 1108.77 557.061C1108.32 552.109 1099.85 555.463 1096.9 555.997Z" fill="white" fill-opacity="0.2"/>
<path d="M1051.88 596.288C1052.49 592.939 1055.84 589.982 1054.8 586.741C1054.08 584.499 1051.47 583.392 1049.12 583.337C1046.76 583.282 1044.45 583.983 1042.1 584.049C1040.56 583.968 1039.03 583.989 1037.5 584.114C1032.82 584.882 1029.94 589.778 1025.54 591.519C1022.86 592.578 1019.85 592.376 1017.06 593.107C1010.74 594.769 1006.74 600.74 1002.32 605.555C995.177 613.299 985.872 618.722 975.611 621.121C972.015 621.953 968.15 622.485 965.292 624.819C961.508 627.909 960.576 633.207 959.734 638.018C957.408 651.305 953.853 664.347 949.115 676.977L964.13 678.893C966.985 679.257 969.942 679.614 972.693 678.769C974.692 678.015 976.585 677.008 978.326 675.77C985.013 671.621 992.498 668.921 1000.29 667.845C1004.23 667.306 1008.35 667.207 1012.04 668.668C1015.73 670.128 1018.89 673.441 1019.2 677.395C1020.8 676.899 1022.5 676.845 1024.12 677.24C1025.75 677.635 1027.23 678.463 1028.42 679.636C1030.77 682.03 1032.31 685.101 1032.82 688.417C1033.22 690.47 1033.62 692.93 1035.52 693.791C1037.08 694.493 1038.86 693.737 1040.56 693.601C1046.34 693.139 1051.13 699.866 1056.8 698.708C1062.88 697.465 1064.38 688.357 1070.32 686.533C1073.73 685.485 1078.51 686.759 1080.14 683.59C1081.58 680.796 1078.71 677.572 1079 674.444C1079.37 670.592 1083.92 668.957 1087.42 667.314C1099.5 661.647 1105.24 645.395 1099.38 633.408C1095.91 626.306 1089.09 620.715 1087.83 612.913C1086.86 606.91 1089.22 599.91 1085.39 595.185C1083.45 592.782 1080.15 591.455 1078.99 588.587C1078.26 586.781 1078.55 584.733 1078.16 582.826C1077.77 580.919 1076.1 578.924 1074.22 579.418C1068.75 580.853 1067 597.741 1064.07 601.844C1059.62 608.081 1050.48 603.973 1051.88 596.288Z" fill="white" fill-opacity="0.2"/>
<path d="M950.775 562.378C948.906 561.854 946.865 561.338 945.074 562.087C943.283 562.835 942.237 565.463 943.674 566.767C954.92 566.33 966.235 565.895 977.386 567.421C990.233 569.18 1002.95 573.536 1015.85 572.254C1008.48 570.081 1000.99 568.343 993.412 567.051L980.78 564.639C977.391 563.93 973.967 563.401 970.522 563.055C963.316 562.46 957.861 564.364 950.775 562.378Z" fill="white" fill-opacity="0.2"/>
<path d="M962.034 523.234C961.101 523.157 959.944 523.089 959.461 523.892C959 524.658 959.528 525.671 959.28 526.53C958.941 527.705 957.402 528.004 956.19 527.845C954.977 527.685 953.666 527.302 952.592 527.886C952.047 528.258 951.638 528.796 951.425 529.42C951.213 530.045 951.208 530.721 951.413 531.348C951.852 532.592 952.562 533.723 953.492 534.66C955.081 536.661 956.891 538.475 958.888 540.068C962.753 542.92 967.99 544.294 970.424 548.433C970.767 549.235 971.295 549.945 971.965 550.505C973.133 551.245 974.658 550.682 975.916 550.108L980.327 548.094C981.121 547.808 981.83 547.326 982.389 546.692C983.396 545.326 982.777 543.383 981.931 541.911C981.086 540.439 980.003 538.916 980.185 537.228C980.508 534.219 984.38 533.068 985.971 530.493C987.576 527.898 986.531 524.554 986.716 521.509C986.933 517.948 989.172 513.315 985.569 510.655C982.508 508.393 979.581 510.483 977.383 512.979C972.748 518.244 970.556 523.946 962.034 523.234Z" fill="white" fill-opacity="0.2"/>
<path d="M988.807 470.025C990.313 472.906 993.452 474.626 995.094 477.432C996.874 480.473 996.672 484.403 998.602 487.351C1000.58 490.376 1004.57 491.982 1005.68 495.422C1006.89 499.178 1004.14 503.743 1006.34 507.025C1006.74 507.561 1007.26 508.007 1007.85 508.334C1008.44 508.66 1009.09 508.861 1009.77 508.923C1010.44 508.984 1011.12 508.906 1011.76 508.692C1012.4 508.479 1012.98 508.134 1013.48 507.681C1014.41 506.675 1014.9 505.347 1014.86 503.982C1014.82 502.616 1014.25 501.32 1013.27 500.37C1011.97 499.186 1010.1 498.675 1009.02 497.292C1008.46 496.495 1008.08 495.579 1007.92 494.615C1007.33 491.834 1007.42 488.951 1008.2 486.214C1008.49 485.52 1008.56 484.754 1008.41 484.017C1007.92 482.599 1006 482.498 1004.65 481.84C1001.59 480.346 1001.66 476.026 1002.2 472.662C1001.84 474.901 993.856 471.092 993.02 469.823C991.359 467.303 992.263 462.441 991.934 459.656C988.349 461.383 986.966 466.502 988.807 470.025Z" fill="white" fill-opacity="0.2"/>
<path d="M908.382 514.359C906.909 512.71 904.689 510.986 902.714 511.98C901.207 512.738 900.792 514.822 901.383 516.402C902.103 517.936 903.21 519.256 904.597 520.231C908.714 523.624 913.147 526.687 916.738 530.631C923.165 537.689 926.57 547.214 933.56 553.716C934.965 555.224 936.825 556.23 938.856 556.581C940.893 556.77 943.18 555.468 943.414 553.437C943.606 551.765 942.44 550.268 941.3 549.028C938.584 546.077 935.612 543.36 933.048 540.276C931.865 539.091 931.121 537.538 930.939 535.874C930.926 534.213 932.442 532.475 934.051 532.887C932.094 532.386 930.641 529.127 927.768 528.514C925.366 528.002 924.785 529.488 921.927 528.263C916.476 525.926 912.2 518.629 908.382 514.359Z" fill="white" fill-opacity="0.2"/>
<path d="M1036.47 353.849C1034.9 353.384 1033.37 352.835 1031.86 352.205C1027.81 350.991 1022.46 353.964 1023 358.152C1023.36 360.935 1025.95 362.811 1027.38 365.225C1029.5 368.805 1028.94 373.345 1027.82 377.354C1027.55 378.595 1027.03 379.769 1026.29 380.805C1025.26 381.899 1024.03 382.784 1022.66 383.412C1017.2 386.475 1012.38 390.568 1008.47 395.463C1008.04 395.915 1007.75 396.473 1007.61 397.078C1007.42 398.492 1008.84 399.522 1009.65 400.702C1011.43 403.322 1010.14 406.847 1010.32 410.013C1010.29 410.461 1010.38 410.908 1010.57 411.312C1010.77 411.716 1011.06 412.064 1011.43 412.323C1012.5 412.869 1013.78 411.941 1014.36 410.884C1016.3 407.378 1014.84 401.749 1018.47 400.059C1019.16 399.739 1019.99 399.604 1020.45 399.001C1021.18 398.044 1020.48 396.627 1020.85 395.483C1021.4 393.765 1023.75 393.688 1025.56 393.764C1028.66 393.894 1031.77 393.481 1034.73 392.543C1035.9 392.266 1036.95 391.655 1037.77 390.784C1038.86 389.43 1038.76 387.504 1038.55 385.781C1037.46 377.196 1034.74 368.897 1030.53 361.334C1033.72 361.742 1037.19 362.094 1039.95 360.432C1041.49 359.502 1043.34 356.718 1042.57 354.824C1041.36 351.828 1039.18 354.349 1036.47 353.849Z" fill="#3F3D56" fill-opacity="0.2"/>
<path d="M627.328 401.069C627.709 403.116 628.085 405.271 627.414 407.243C626.742 409.214 624.631 410.861 622.636 410.257C621.089 409.788 620.195 408.233 619.096 407.048C612.985 400.454 599.197 404.272 595.422 396.115C593.881 392.785 594.928 388.797 593.877 385.283C593.214 383.252 591.895 381.498 590.127 380.298C588.358 379.097 586.241 378.518 584.107 378.65C582.161 378.931 580.267 379.496 578.485 380.327C566.549 385.105 554.018 388.237 541.237 389.638C538.808 389.786 536.405 390.222 534.08 390.939C528.832 392.84 525.246 397.703 522.694 402.665C520.142 407.626 518.258 412.998 514.837 417.406C511.241 422.039 506.203 425.283 501.503 428.792C499.692 429.958 498.184 431.537 497.104 433.4C496.085 435.49 496.142 437.922 496.221 440.246L497.182 468.472C497.306 472.103 497.461 475.863 499.087 479.112C501.117 483.17 505.128 485.827 507.911 489.411C510.75 493.094 512.23 497.645 512.098 502.292C512.039 504.161 511.853 506.371 513.309 507.545C514.195 508.119 515.232 508.417 516.287 508.401L554.494 511.526C561.214 512.075 568.663 512.979 573.05 518.096C575.121 520.511 576.785 523.984 579.957 524.244C581.317 524.355 582.641 523.797 584.002 523.689C587.435 523.417 590.451 526.021 592.355 528.89C595.236 533.262 596.544 538.483 596.063 543.696C595.751 546.968 594.736 550.149 594.517 553.428C593.685 565.907 604.27 576.749 604.475 589.255C604.596 596.61 601.102 603.483 597.695 610.004C603.193 618.328 598.691 629.412 600.88 639.143C602.957 648.375 610.659 655.602 612.578 664.868C613.457 669.11 613.508 674.33 617.251 676.515C618.893 677.315 620.714 677.679 622.538 677.573C633.539 677.703 644.416 675.228 654.277 670.351C658.905 668.056 663.701 664.63 664.51 659.53C665.161 655.417 663.074 650.817 665.198 647.235C667.701 643.013 674.114 643.347 677.797 640.101C683.772 634.835 679.113 624.791 681.534 617.206C683.71 610.388 691.2 606.766 694.913 600.647C696.375 598.015 697.423 595.175 698.023 592.225C699.724 585.176 700.782 577.987 701.186 570.747C701.285 566.348 701.609 561.957 702.158 557.591C706.162 532.735 730.749 516.092 738.732 492.214C739.495 489.934 739.853 486.896 737.823 485.606C736.619 485.032 735.254 484.889 733.957 485.201L716.345 487.421C714.157 487.696 711.838 487.954 709.829 487.046C707.82 486.138 706.38 483.598 707.446 481.669C710.437 476.254 704.284 469.411 701.551 463.862C694.188 448.919 685.421 434.71 675.368 421.426C674.724 420.743 674.321 419.868 674.22 418.935L679.218 419.102C677.531 413.051 674.746 406.429 668.864 404.216C665.549 402.969 661.879 403.4 658.342 403.593C648.213 404.146 637.353 402.618 627.328 401.069Z" fill="white" fill-opacity="0.2"/>
<path d="M658.35 264.713C661.001 267.526 663.971 270.508 667.807 270.999C674.58 271.865 679.451 264.864 682.552 258.784C682.667 260.334 683.382 261.778 684.546 262.809C685.71 263.841 687.23 264.377 688.784 264.305C690.456 264.024 692.052 263.401 693.471 262.474C706.893 255.144 721.925 251.26 737.22 251.172C737.073 250.014 737.36 248.843 738.027 247.884C738.693 246.926 739.691 246.248 740.828 245.981C743.937 245.365 746.739 248.052 748.239 250.843C749.739 253.634 750.674 256.869 753.057 258.958C755.441 261.047 760.055 260.956 760.996 257.931C761.9 255.026 758.872 252.55 756.357 250.837C753.842 249.125 751.19 245.956 752.884 243.429C765.735 240.586 778.665 237.733 791.814 237.167C794.053 237.245 796.284 236.861 798.368 236.039C800.373 235.056 801.967 232.823 801.428 230.657C798.558 231.331 795.553 231.136 792.795 230.096C790.036 229.057 787.651 227.22 785.941 224.82C804.187 223.315 823.594 222.032 839.764 230.612C841.704 234.775 831.814 238.239 834.46 241.994C835.304 243.191 836.995 243.332 838.461 243.359C849.697 243.567 860.999 243.772 872.109 242.076C876.169 241.457 880.27 240.582 884.346 241.084C891.135 241.921 896.942 246.448 903.622 247.925C906.341 248.525 909.389 248.546 911.681 246.965C913.972 245.385 914.957 241.787 913.079 239.733C919.368 233.573 929.806 235.099 938.103 238.049C946.4 240.998 954.26 245.753 963.041 246.411C969.338 246.882 975.722 245.189 981.945 246.265C985.855 246.941 989.494 248.68 993.315 249.748C1000.54 251.768 1008.19 251.341 1015.69 251.439C1034.84 251.696 1053.78 255.457 1071.57 262.535C1073.88 263.288 1076.01 264.54 1077.78 266.202C1079.44 267.974 1080.28 270.727 1079.17 272.881L1060.78 270.196C1062.52 273.604 1067 274.185 1070.64 275.361C1074.28 276.536 1078.05 280.553 1075.86 283.688C1071.92 282.433 1068.35 286.373 1066.35 289.998C1064.36 293.623 1061.94 297.964 1057.8 298.185C1054.1 298.383 1049.63 295.234 1047.22 298.046C1050.55 302.247 1053.4 306.806 1055.72 311.638C1058.11 316.599 1059.8 322.851 1056.58 327.314C1056.08 328.111 1055.31 328.707 1054.41 328.999C1051.78 329.664 1050.07 326.448 1048.18 324.499C1045.81 322.043 1042.21 321.348 1038.99 320.196C1035.77 319.044 1032.38 316.778 1032.13 313.37C1031.97 311.25 1033.09 309.279 1033.92 307.319C1035.31 304.017 1035.91 300.439 1035.69 296.864C1035.51 293.987 1034.7 290.996 1032.64 288.986C1030.57 286.976 1027 286.339 1024.78 288.18C1023.75 289.038 1022.92 290.412 1021.57 290.463C1019.2 290.554 1017.37 286.415 1015.46 287.828C1015.69 289.334 1015.37 290.87 1014.58 292.169C1008.88 297.126 1000.11 295.029 992.761 296.78C989.265 297.78 985.917 299.241 982.807 301.124C981.644 301.621 980.653 302.452 979.962 303.511C979.044 305.293 980.056 307.576 981.674 308.761C983.389 309.813 985.317 310.471 987.318 310.687C996.282 312.384 1005.38 315.01 1012.45 320.764C1019.53 326.518 1024.17 336.03 1021.93 344.868L1004.26 327.988C1004.93 335.076 1005.31 342.183 1005.4 349.31C1005.51 350.701 1005.32 352.101 1004.84 353.411C1003.58 356.193 1000.16 357.129 997.169 357.743C996.337 357.901 995.547 358.233 994.852 358.718C994.157 359.203 993.573 359.829 993.137 360.555C992.702 361.282 992.425 362.092 992.325 362.933C992.225 363.774 992.304 364.626 992.558 365.434C993.621 368.898 996.273 371.599 998.7 374.29C1001.13 376.981 1003.52 380.04 1003.84 383.649C1004.15 387.259 1001.43 391.327 997.811 391.076C995.069 390.886 993.035 388.433 991.866 385.947C990.696 383.461 990 380.692 988.243 378.58C982.924 372.188 970.978 374.926 966.213 368.111C964.999 369.488 964.156 371.152 963.766 372.946C963.376 374.74 963.451 376.603 963.985 378.359C966.201 376.973 969.236 378.261 970.901 380.276C972.567 382.291 973.352 384.874 974.66 387.138C976.425 390.192 979.234 392.899 979.48 396.417C979.415 397.747 979.437 399.08 979.547 400.408C979.985 402.539 981.788 404.07 983.038 405.852C985.946 409.998 985.803 415.693 983.928 420.397C982.053 425.101 978.685 429.031 975.349 432.842C969.523 439.498 963.577 446.115 956.669 451.643C954.698 453.22 952.595 454.771 951.367 456.976C950.139 459.181 950.076 462.276 951.963 463.954C950.613 464.021 948.192 464.685 946.843 464.752C946.368 459.341 946.265 453.903 946.534 448.478C941.207 445.922 935.472 452.767 936.159 458.632C936.846 464.498 941.091 469.204 944.113 474.279C946.324 477.99 947.966 482.316 947.228 486.571C946.49 490.826 942.69 494.752 938.385 494.376C931.538 493.779 928.674 483.956 921.893 482.831C921.295 482.691 920.667 482.753 920.109 483.008C919.102 483.561 918.927 484.906 918.871 486.052C918.593 491.677 918.353 497.525 920.55 502.711C923.764 510.298 932.068 516.67 930.326 524.722C920.943 520.363 916.064 509.848 913.849 499.746C911.634 489.645 911.265 479.041 907.294 469.492C904.279 473.354 897.942 470.161 895.187 466.11C892.576 462.269 890.968 457.826 888.434 453.933C885.9 450.04 882.019 446.554 877.377 446.34C872.51 446.116 868.289 449.453 864.577 452.607C861.525 455.2 858.391 457.896 856.607 461.48C854.01 466.697 854.69 472.846 854.565 478.671C854.429 484.968 853.094 491.612 848.799 496.222C844.505 500.832 836.578 502.438 831.841 498.283C829.368 496.114 828.171 492.873 827.104 489.763C821.963 474.768 817.681 459.492 814.28 444.01C813.484 447.544 810.379 452.098 807.413 450.017C806.748 449.457 806.208 448.763 805.831 447.98C800.299 438.608 790.053 432.987 779.7 429.617C769.348 426.247 758.456 424.675 748.219 420.971C742.482 418.894 737.002 416.166 731.888 412.841C730.584 414.755 729.823 416.986 729.685 419.298C729.546 421.609 730.036 423.915 731.103 425.971C733.374 429.989 738.513 432.314 742.911 430.91C745.185 430.184 747.104 428.607 749.36 427.828C751.615 427.049 754.643 427.432 755.629 429.603C756.573 431.682 755.146 434.197 755.854 436.367C756.932 439.673 761.921 439.927 763.665 442.935C764.963 445.174 763.895 448.146 762.042 449.952C760.189 451.758 757.716 452.748 755.454 454.005C748.114 458.084 742.894 465.048 736.479 470.465C730.064 475.883 721.014 479.838 713.368 476.363C715.191 467.141 704.199 460.371 702.177 451.191C701.511 448.169 701.856 444.959 700.906 442.015C699.53 437.751 695.745 434.82 692.64 431.589C688.874 427.628 685.94 422.953 684.012 417.84C682.083 412.728 681.199 407.281 681.411 401.821C681.578 398.027 682.276 394.171 681.411 390.473C680.546 386.775 677.482 383.195 673.686 383.363C665.015 383.746 654.091 384.39 649.542 377.003C647.918 374.367 647.211 370.505 649.559 368.485C651.215 367.061 653.659 367.195 655.834 367.409L675.371 369.329C679.941 369.778 684.88 370.149 688.802 367.762C692.723 365.375 694.422 359.037 690.791 356.229C688.138 354.176 683.385 354.288 682.614 351.025C681.971 348.307 684.981 345.224 683.356 342.953C682.19 341.324 679.57 341.776 677.982 342.997C676.394 344.218 675.242 346.003 673.464 346.927C670.347 348.549 666.622 347.005 663.268 345.957C659.914 344.908 655.417 344.819 653.791 347.932C651.971 351.414 655.404 355.976 653.599 359.465C651.211 364.078 643.127 361.452 639.774 365.42C635.927 369.972 642.392 376.761 641.094 382.578C639.438 383.398 637.597 383.774 635.752 383.67C633.906 383.567 632.119 382.987 630.565 381.987C629.036 380.948 627.818 379.514 627.04 377.838C626.262 376.162 625.952 374.307 626.145 372.47C626.466 369.853 627.831 367.182 626.917 364.71C626.177 362.711 624.169 361.521 622.302 360.49L603.316 350.005C601.554 353.273 603.782 357.324 606.569 359.779C609.356 362.233 612.847 364.082 614.678 367.312C615.836 369.55 616.096 372.145 615.404 374.568C614.712 376.991 613.12 379.058 610.955 380.348C610.683 380.535 610.374 380.662 610.05 380.718C609.725 380.775 609.391 380.761 609.073 380.676C608.77 380.498 608.506 380.262 608.296 379.98C608.086 379.698 607.935 379.377 607.852 379.036C604.502 370.469 599.473 362.022 591.432 357.547C583.391 353.072 571.837 353.992 566.564 361.531C565.312 363.321 564.471 365.362 563.38 367.255C557.584 377.314 545.157 382.076 533.547 381.765C532.411 381.828 531.281 381.563 530.293 381.001C528.416 379.706 528.501 376.958 528.788 374.697L530.007 365.103C530.251 363.176 530.606 361.047 532.132 359.844C534.283 358.149 537.385 359.218 540.124 359.179C542.2 359.082 544.195 358.35 545.839 357.081C547.484 355.813 548.698 354.07 549.318 352.088C549.872 350.087 549.868 347.973 549.308 345.974C548.748 343.975 547.653 342.166 546.14 340.743C544.885 339.565 543.2 338.084 543.863 336.496C544.128 336.056 544.485 335.68 544.911 335.394C545.337 335.107 545.82 334.918 546.327 334.838C551.247 333.41 556.446 333.036 561.284 331.351C566.122 329.666 570.813 326.219 571.959 321.229C572.31 319.699 572.47 317.847 573.845 317.089C574.534 316.797 575.275 316.646 576.024 316.644C578.647 316.271 581.035 314.93 582.718 312.885C584.402 310.841 585.258 308.241 585.119 305.597C587.438 303.978 590.686 305.169 592.929 306.891C595.172 308.613 597.153 310.888 599.882 311.63C604.968 313.014 609.884 308.513 615.155 308.492C617.372 308.484 619.667 309.267 621.752 308.516C623.866 307.754 625.129 305.651 626.752 304.097C628.374 302.543 631.221 301.596 632.72 303.27L631.444 293.825C634.013 294.474 636.692 294.565 639.3 294.094C641.908 293.623 644.385 292.6 646.564 291.093L630.074 285.525C629.5 285.382 628.971 285.099 628.532 284.701C627.334 283.411 628.524 281.4 629.499 279.934C631.831 276.426 632.223 270.647 628.388 268.9C625.77 267.708 622.765 269.139 620.253 270.539L608.217 277.245C607.835 279.532 610.633 280.827 612.366 282.367C613.415 283.299 614.157 284.526 614.496 285.887C614.834 287.248 614.752 288.68 614.262 289.994C613.771 291.308 612.894 292.443 611.746 293.249C610.598 294.056 609.233 294.497 607.83 294.514C608.622 295.544 609.173 296.739 609.441 298.01C609.709 299.281 609.687 300.596 609.378 301.858L601.28 302.44C600.371 302.623 599.427 302.439 598.654 301.928C597.788 301.159 597.905 299.812 597.704 298.672C597.22 295.92 594.524 293.992 591.772 293.497C589.02 293.003 586.205 293.636 583.481 294.262C582.324 294.678 581.053 294.649 579.917 294.18C579.265 293.757 578.77 293.132 578.507 292.401C577.312 289.507 578.429 286.105 580.347 283.629C582.266 281.154 584.892 279.344 587.251 277.284C592.892 272.338 597.036 265.914 599.216 258.737C603.674 256.871 608.289 254.335 612.746 252.468C619.619 248.991 627.326 247.498 635.001 248.159L650.098 248.447C654.568 248.532 659.158 248.642 663.291 250.345C667.424 252.048 671.056 255.731 671.341 260.189C671.427 260.694 671.384 261.212 671.214 261.696C671.045 262.179 670.756 262.611 670.373 262.952C669.79 263.27 669.128 263.419 668.465 263.382C664.296 263.528 662.519 264.566 658.35 264.713Z" fill="white" fill-opacity="0.2"/>
<path d="M538.02 311.997C538.609 311.439 539.034 310.729 539.246 309.946C539.459 309.162 539.451 308.336 539.224 307.556C537.789 307.003 536.228 306.861 534.716 307.146C533.204 307.431 531.802 308.133 530.668 309.171C529.774 310.075 529.003 311.093 528.376 312.2C526.392 315.434 524.637 319.297 525.787 322.913C525.881 323.307 526.052 323.679 526.292 324.006C526.531 324.333 526.833 324.609 527.181 324.818C527.696 325.025 528.251 325.112 528.805 325.072C530.991 325.07 533.174 324.935 535.343 324.67C536.675 324.508 538.223 324.132 538.737 322.893C539.414 321.265 537.776 319.422 538.254 317.725C538.568 316.966 539.044 316.285 539.649 315.728C539.949 315.448 540.179 315.102 540.322 314.718C540.465 314.333 540.516 313.92 540.471 313.513C540.279 312.716 539.058 312.264 538.619 312.956" fill="white" fill-opacity="0.2"/>
<path d="M549.352 297.314C547.41 296.868 545.409 296.743 543.427 296.942C542.989 296.929 542.554 297.028 542.165 297.229C541.787 297.507 541.514 297.903 541.387 298.355C540.968 299.697 541.071 301.148 541.675 302.419C542.279 303.689 543.339 304.685 544.645 305.209C545.357 305.373 546.039 305.646 546.666 306.021C548.342 307.32 547.273 309.976 547.591 312.071C547.947 314.424 550.226 316.4 549.808 318.743C549.479 320.589 547.506 322.05 547.824 323.898C548.156 325.834 550.614 326.415 552.573 326.57C553.708 326.769 554.877 326.635 555.938 326.185C557.001 325.458 557.757 324.364 558.061 323.112C558.863 320.727 559.2 318.21 559.053 315.697C559.045 314.555 558.758 313.431 558.217 312.424C557.627 311.627 556.973 310.878 556.261 310.187C552.508 305.824 556.46 299.316 549.352 297.314Z" fill="white" fill-opacity="0.2"/>
<path opacity="0.8" d="M1042.89 639.093C1042.89 639.093 755.432 474.192 631.678 505.437C631.678 505.437 369.406 533.643 339.01 595.698C339.01 595.698 255.639 335.328 225.244 326.649" stroke="#F2B138" stroke-opacity="0.2" stroke-width="2" stroke-miterlimit="10"/>
<path opacity="0.8" d="M339.011 595.698C387.209 467.249 821.434 324.913 821.434 324.913C759.774 340.536 631.678 505.437 631.678 505.437C631.678 505.437 360.722 308.423 225.244 326.649C225.244 326.649 821.868 346.177 1042.89 639.093" stroke="#F2B138" stroke-opacity="0.2" stroke-width="2" stroke-miterlimit="10"/>
<path d="M225.244 339.234C232.198 339.234 237.836 333.599 237.836 326.649C237.836 319.699 232.198 314.064 225.244 314.064C218.289 314.064 212.651 319.699 212.651 326.649C212.651 333.599 218.289 339.234 225.244 339.234Z" fill="#F2B138" fill-opacity="0.2"/>
<path d="M339.01 608.283C345.965 608.283 351.603 602.648 351.603 595.698C351.603 588.748 345.965 583.114 339.01 583.114C332.056 583.114 326.418 588.748 326.418 595.698C326.418 602.648 332.056 608.283 339.01 608.283Z" fill="#F2B138" fill-opacity="0.2"/>
<path d="M821.434 337.498C828.389 337.498 834.027 331.864 834.027 324.913C834.027 317.963 828.389 312.329 821.434 312.329C814.479 312.329 808.842 317.963 808.842 324.913C808.842 331.864 814.479 337.498 821.434 337.498Z" fill="#F2B138" fill-opacity="0.2"/>
<path d="M1042.89 651.678C1049.84 651.678 1055.48 646.043 1055.48 639.093C1055.48 632.143 1049.84 626.509 1042.89 626.509C1035.93 626.509 1030.3 632.143 1030.3 639.093C1030.3 646.043 1035.93 651.678 1042.89 651.678Z" fill="#F2B138" fill-opacity="0.2"/>
<path d="M631.678 518.021C638.633 518.021 644.271 512.387 644.271 505.436C644.271 498.486 638.633 492.852 631.678 492.852C624.723 492.852 619.085 498.486 619.085 505.436C619.085 512.387 624.723 518.021 631.678 518.021Z" fill="#F2B138" fill-opacity="0.2"/>
</svg>
